# AST/ASF file generated using VICON BodyLanguage
# -----------------------------------------------
:version 1.10
:name VICON
:units
  mass 1.0
  length 0.45
  angle deg
:documentation
   .ast/.asf automatically generated from VICON data using
   VICON BodyBuilder and BodyLanguage model FoxedUp or BRILLIANT.MOD
:root
   order TX TY TZ RX RY RZ
   axis XYZ
   position 0 0 0  
   orientation 0 0 0 
:bonedata
  begin
     id 1 
     name lhipjoint
     direction 0.630082 -0.636569 0.44472 
     length 2.82754 
     axis 0 0 0  XYZ
  end
  begin
     id 2 
     name lfemur
     direction 0.34202 -0.939693 0  
     length 7.26371  
     axis 0 0 20  XYZ
    dof rx ry rz
    limits (-160.0 20.0)
           (-70.0 70.0)
           (-60.0 70.0)
  end
  begin
     id 3 
     name ltibia
     direction 0.34202 -0.939693 0   
     length 7.88616   
     axis 0 0 20   XYZ
    dof rx
    limits (-10.0 170.0)
  end
  begin
     id 4 
     name lfoot
     direction 0.0603448 -0.165796 0.984312   
     length 1.77861   
     axis -90 7.62852e-016 20   XYZ
    dof rx rz
    limits (-45.0 90.0)
           (-70.0 20.0)
  end
  begin
     id 5 
     name ltoes
     direction 1.53577e-011 -4.21876e-011 1   
     length 0.902235   
     axis -90 7.62852e-016 20   XYZ
    dof rx
    limits (-90.0 20.0)
  end
  begin
     id 6 
     name rhipjoint
     direction -0.656778 -0.61817 0.431866   
     length 2.9117  
     axis 0 0 0  XYZ 
  end
  begin
     id 7 
     name rfemur
     direction -0.34202 -0.939693 0   
     length 6.81603   
     axis 0 0 -20   XYZ
    dof rx ry rz
    limits (-160.0 20.0)
           (-70.0 70.0)
           (-70.0 60.0)
  end
  begin
     id 8 
     name rtibia
     direction -0.34202 -0.939693 0   
     length 8.05997   
     axis 0 0 -20   XYZ
    dof rx
    limits (-10.0 170.0)
 end
 begin
     id 9 
     name rfoot
     direction -0.0862404 -0.236944 0.967688   
     length 1.84899  
     axis -90 -7.62852e-016 -20   XYZ
    dof rx rz
    limits (-45.0 90.0)
           (-20.0 70.0)
  end
  begin
     id 10 
     name rtoes
     direction -1.53561e-011 -4.21798e-011 1   
     length 0.931579   
     axis -90 -7.62852e-016 -20   XYZ
    dof rx
    limits (-90.0 20.0)
  end
  begin
     id 11 
     name lowerback
     direction -0.0110203 0.991769 -0.127564   
     length 2.05686   
     axis 0 0 0   XYZ
    dof rx ry rz
    limits (-20.0 45.0)
           (-30.0 30.0)
           (-30.0 30.0)
  end
  begin
     id 12 
     name upperback
     direction 0.0109719 0.99993 -0.00432479   
     length 2.06234   
     axis 0 0 0   XYZ
    dof rx ry rz
    limits (-20.0 45.0)
           (-30.0 30.0)
           (-30.0 30.0)
  end
  begin
     id 13 
     name thorax
     direction 0.0173308 0.998351 0.0547306   
     length 2.09856   
     axis 0 0 0   XYZ
    dof rx ry rz
    limits (-20.0 45.0)
           (-30.0 30.0)
           (-30.0 30.0)
  end
  begin
     id 14 
     name lowerneck
     direction -0.0311736 0.989033 0.144366   
     length 1.98151   
     axis 0 0 0   XYZ
    dof rx ry rz
    limits (-20.0 45.0)
           (-30.0 30.0)
           (-30.0 30.0)
  end
  begin
     id 15 
     name upperneck
     direction 0.0421057 0.975772 -0.214698   
     length 2.01457   
     axis 0 0 0   XYZ
    dof rx ry rz
    limits (-20.0 45.0)
           (-30.0 30.0)
           (-30.0 30.0)
  end
  begin
     id 16
     name head
     direction 0.0136911 0.995958 -0.0887718  
     length 2.03562  
     axis 0 0 0   XYZ
    dof rx ry rz
    limits (-20.0 45.0)
           (-30.0 30.0)
           (-30.0 30.0)
  end
  begin
     id 17 
     name lclavicle
     direction 0.915335 0.396201 0.0720134  
     length 4.16217  
     axis 0 0 0   XYZ
    dof ry rz
    limits (-20.0 10.0)
           (0.0 20.0)
  end
  begin
     id 18 
     name lhumerus
     direction 1 -4.48965e-011 6.383e-018   
     length 4.93042   
     axis -180 -30 -90   XYZ
    dof rx ry rz
    limits (-60.0 90.0)
           (-90.0 90.0)
           (-90.0 90.0)
  end
  begin
     id 19
     name lradius
     direction 1 -4.48972e-011 8.8689e-027   
     length 3.68177   
     axis -180 -30 -90   XYZ
    dof rx
    limits (-10.0 170.0)
  end
  begin
     id 20
     name lwrist
     direction 1 -4.48953e-011 1.17971e-026   
     length 1.84089   
     axis -7.69454e-015 90 90   XYZ
    dof ry
    limits (-180.0 0.0)
 end
  begin
     id 21 
     name lhand
     direction 1 -4.49027e-011 2.35802e-026   
     length 0.721479   
     axis -1.50533e-014 90 90   XYZ
    dof rx rz
    limits (-90.0 90.0)
           (-45.0 45.0)
  end
  begin
     id 22 
     name lfingers
     direction 1 -4.48915e-011 4.72027e-026   
     length 0.581675   
     axis -3.01059e-014 90 90   XYZ
    dof rx
    limits (0.0 90.0)
  end
  begin
     id 23
     name lthumb
     direction 0.707107 -6.34948e-011 0.707107   
     length 0.835172   
     axis -90 45 -5.12164e-014   XYZ
    dof rx rz
    limits (-45.0 45.0)
           (-45.0 45.0)
  end
  begin
     id 24 
     name rclavicle
     direction -0.882781 0.469197 0.0234974   
     length 3.95647  
     axis 0 0 0   XYZ 
    dof ry rz
    limits (-10.0 20.0)
           (-20.0 0.0)
  end
  begin
     id 25 
     name rhumerus
     direction -1 -4.48965e-011 -1.54906e-018  
     length 5.07905   
     axis -180 30 90   XYZ
    dof rx ry rz
    limits (-90.0 60.0)
           (-90.0 90.0)
           (-90.0 90.0)
  end
  begin
     id 26 
     name rradius
     direction -1 -4.48972e-011 5.47489e-027   
     length 3.54394   
     axis -180 30 90   XYZ
    dof rx
    limits (-10.0 170.0)
  end
  begin
     id 27 
     name rwrist
     direction -1 -4.48955e-011 1.17969e-026   
     length 1.77197   
     axis -7.69454e-015 -90 -90   XYZ
    dof ry
    limits (-180.0 0.0)
  end
  begin
     id 28
     name rhand
     direction -1 -4.48982e-011 2.35888e-026   
     length 0.681156   
     axis -1.50533e-014 -90 -90   XYZ
    dof rx rz
    limits (-90.0 90.0)
           (-45.0 45.0)
  end
  begin
     id 29
     name rfingers
     direction -1 -4.48955e-011 4.71877e-026   
     length 0.549165   
     axis -3.01059e-014 -90 -90   XYZ
    dof rx
    limits (0.0 90.0)
  end
  begin
     id 30
     name rthumb
     direction -0.707107 -6.3491e-011 0.707107   
     length 0.788495   
     axis -90 -45 5.12164e-014   XYZ
    dof rx rz
    limits (-45.0 45.0)
           (-45.0 45.0)
  end
:hierarchy
  begin
    root lhipjoint rhipjoint lowerback
    lhipjoint lfemur
    lfemur ltibia
    ltibia lfoot
    lfoot ltoes
    rhipjoint rfemur
    rfemur rtibia
    rtibia rfoot
    rfoot rtoes
    lowerback upperback
    upperback thorax
    thorax lowerneck lclavicle rclavicle
    lowerneck upperneck
    upperneck head
    lclavicle lhumerus
    lhumerus lradius
    lradius lwrist
    lwrist lhand lthumb
    lhand lfingers
    rclavicle rhumerus
    rhumerus rradius
    rradius rwrist
    rwrist rhand rthumb
    rhand rfingers
  end

#!OML:ASF H:\Bending\Project 1\Capture day 1\Session 1\Subject.ASF
:FULLY-SPECIFIED
:DEGREES
17
root -9.6721 17.939 -16.3423 -144.442 88.5328 -147.238
lowerback 7.51812 -0.294479 0.83765
upperback -2.01123 -0.215828 1.39095
thorax -6.32214 -0.105455 1.00953
lowerneck -23.6331 -4.44939 -6.01233
upperneck 35.9935 -4.53822 3.08852
head 17.461 -1.92669 1.55984
rclavicle -1.05604e-015 -1.27222e-014
rhumerus -37.7342 -1.18515 -77.9817
rradius 29.7085
rwrist 21.5535
rhand -15.1341 -13.073
rfingers 7.12502
rthumb 11.0354 -42.7629
lclavicle -1.05604e-015 -1.27222e-014
lhumerus -34.77 5.85713 87.3848
lradius 27.1691
lwrist 18.8174
lhand -30.9889 9.06946
lfingers 7.12502
lthumb -4.27244 39.0064
rfemur 6.15555 -4.59036 14.4617
rtibia 0
rfoot -9.27952 -14.6708
rtoes 6.43777
lfemur -6.62872 -12.7701 -11.673
ltibia 20.6217
lfoot -19.8121 6.35429
ltoes -11.6732
18
root -9.67406 17.9407 -16.3425 -142.095 88.5025 -144.958
lowerback 7.6116 -0.271303 0.96185
upperback -1.98484 -0.171205 1.38763
thorax -6.34873 -0.0882817 0.930972
lowerneck -23.6246 -4.4313 -5.9578
upperneck 36.2919 -4.48047 3.00086
head 17.6118 -1.90149 1.53051
rclavicle 9.80257e-015 -1.55052e-014
rhumerus -37.7074 -0.970192 -78.1001
rradius 29.9919
rwrist 21.4042
rhand -15.0796 -13.0218
rfingers 7.12502
rthumb 11.088 -42.7089
lclavicle 9.80257e-015 -1.55052e-014
lhumerus -34.6495 5.52223 87.5003
lradius 27.1237
lwrist 18.9221
lhand -31.0118 9.06293
lfingers 7.12502
lthumb -4.29457 38.9994
rfemur 6.06851 -4.58562 14.5431
rtibia 9.54166e-015
rfoot -9.24783 -14.6961
rtoes 6.44579
lfemur -6.75345 -12.7601 -11.5738
ltibia 20.7082
lfoot -19.8538 6.30292
ltoes -11.2618
19
root -9.678 17.9433 -16.343 -139.707 88.4683 -142.65
lowerback 7.72204 -0.247474 1.11102
upperback -1.93965 -0.123413 1.37739
thorax -6.36509 -0.0706685 0.830584
lowerneck -23.6063 -4.41151 -5.92031
upperneck 36.5428 -4.42744 2.94608
head 17.7379 -1.87662 1.51715
rclavicle 5.72748e-015 4.77083e-015
rhumerus -37.6716 -0.638309 -78.2767
rradius 30.3707
rwrist 21.166
rhand -15.0671 -13.1214
rfingers 7.12502
rthumb 11.1 -42.8079
lclavicle 5.72748e-015 4.77083e-015
lhumerus -34.5146 5.10179 87.6319
lradius 27.1535
lwrist 19.0863
lhand -30.98 9.0521
lfingers 7.12502
lthumb -4.26385 38.9892
rfemur 5.95651 -4.58102 14.6318
rtibia 1.74931e-014
rfoot -9.18754 -14.7305
rtoes 6.31587
lfemur -6.89431 -12.7484 -11.467
ltibia 20.7855
lfoot -19.8779 6.2596
ltoes -10.854
20
root -9.6841 17.9469 -16.3437 -137.422 88.455 -140.473
lowerback 7.84192 -0.227969 1.23836
upperback -1.88228 -0.0831135 1.37107
thorax -6.37361 -0.055772 0.747394
lowerneck -23.5939 -4.37902 -5.87945
upperneck 36.7616 -4.35634 2.88951
head 17.8475 -1.84518 1.50547
rclavicle 3.98812e-015 -2.78299e-015
rhumerus -37.6202 -0.131819 -78.5136
rradius 30.8249
rwrist 20.7997
rhand -15.2015 -13.3757
rfingers 7.12502
rthumb 10.9704 -43.069
lclavicle 3.98812e-015 -2.78299e-015
lhumerus -34.3786 4.63966 87.7809
lradius 27.2764
lwrist 19.2997
lhand -30.9134 9.06902
lfingers 7.12502
lthumb -4.19948 39.0074
rfemur 5.79765 -4.56212 14.7074
rtibia -9.54166e-015
rfoot -9.10228 -14.7738
rtoes 6.03045
lfemur -7.0499 -12.7181 -11.374
ltibia 20.8259
lfoot -19.8722 6.25254
ltoes -10.651
21
root -9.69253 17.9515 -16.3444 -135.051 88.4864 -138.256
lowerback 7.96305 -0.212326 1.30299
upperback -1.82227 -0.0532846 1.37913
thorax -6.37971 -0.0432638 0.715794
lowerneck -23.583 -4.326 -5.82412
upperneck 36.9472 -4.25002 2.8058
head 17.9361 -1.80273 1.48554
rclavicle -7.45443e-016 -1.82882e-014
rhumerus -37.5374 0.53159 -78.781
rradius 31.3039
rwrist 20.3347
rhand -15.5371 -13.6934
rfingers 7.12502
rthumb 10.6467 -43.4037
lclavicle -7.45443e-016 -1.82882e-014
lhumerus -34.2512 4.16797 87.9579
lradius 27.4952
lwrist 19.5469
lhand -30.8487 9.13136
lfingers 7.12502
lthumb -4.13707 39.0709
rfemur 5.56929 -4.51245 14.7543
rtibia -2.54444e-014
rfoot -9.00272 -14.8228
rtoes 5.6419
lfemur -7.22634 -12.6467 -11.3094
ltibia 20.8112
lfoot -19.8308 6.29634
ltoes -10.771
22
root -9.70337 17.9576 -16.3452 -132.105 88.574 -135.522
lowerback 8.08024 -0.193862 1.29197
upperback -1.76689 -0.0263061 1.40483
thorax -6.38827 -0.0288889 0.745523
lowerneck -23.5511 -4.2519 -5.7585
upperneck 37.0743 -4.10855 2.69649
head 17.9838 -1.75022 1.4584
rclavicle 2.55935e-015 1.23246e-014
rhumerus -37.4044 1.25792 -79.0297
rradius 31.7535
rwrist 19.8637
rhand -16.0377 -13.9398
rfingers 7.12502
rthumb 10.1638 -43.6743
lclavicle 2.55935e-015 1.23246e-014
lhumerus -34.1307 3.69403 88.1762
lradius 27.7948
lwrist 19.8057
lhand -30.8196 9.22974
lfingers 7.12502
lthumb -4.10898 39.1699
rfemur 5.25764 -4.4205 14.7671
rtibia 1.27222e-014
rfoot -8.9021 -14.8703
rtoes 5.25865
lfemur -7.43403 -12.5253 -11.2761
ltibia 20.7398
lfoot -19.7596 6.39153
ltoes -11.1739
23
root -9.71659 17.9654 -16.3462 -127.807 88.709 -131.494
lowerback 8.19287 -0.162828 1.2303
upperback -1.71693 0.01279 1.44115
thorax -6.39997 -0.0064319 0.813164
lowerneck -23.4708 -4.16299 -5.69728
upperneck 37.1016 -3.95136 2.59219
head 17.9629 -1.69354 1.43592
rclavicle 1.14301e-015 -1.98785e-015
rhumerus -37.2108 1.92355 -79.2179
rradius 32.1519
rwrist 19.4958
rhand -16.5806 -14.0175
rfingers 7.12502
rthumb 9.64001 -43.7769
lclavicle 1.14301e-015 -1.98785e-015
lhumerus -34.0011 3.19807 88.4432
lradius 28.148
lwrist 20.0522
lhand -30.8382 9.33208
lfingers 7.12502
lthumb -4.12687 39.2719
rfemur 4.86318 -4.28539 14.7537
rtibia 2.22639e-014
rfoot -8.81093 -14.907
rtoes 5.0007
lfemur -7.68343 -12.3698 -11.2634
ltibia 20.627
lfoot -19.676 6.52859
ltoes -11.6593
24
root -9.73208 17.975 -16.3481 -121.205 88.8651 -125.212
lowerback 8.305 -0.111337 1.16923
upperback -1.66571 0.0787387 1.47195
thorax -6.41033 0.0290534 0.870931
lowerneck -23.3272 -4.0676 -5.65328
upperneck 36.9907 -3.80819 2.53881
head 17.8522 -1.63992 1.43442
rclavicle -1.21756e-015 -6.36111e-015
rhumerus -36.9652 2.44515 -79.337
rradius 32.5324
rwrist 19.2932
rhand -17.0072 -13.9303
rfingers 7.12502
rthumb 9.22841 -43.7083
lclavicle -1.21756e-015 -6.36111e-015
lhumerus -33.8378 2.64579 88.7528
lradius 28.524
lwrist 20.2662
lhand -30.8857 9.39995
lfingers 7.12502
lthumb -4.17274 39.3388
rfemur 4.40024 -4.11725 14.7282
rtibia -1.90833e-014
rfoot -8.73262 -14.9251
rtoes 4.94395
lfemur -7.98019 -12.2193 -11.2548
ltibia 20.4984
lfoot -19.6039 6.69624
ltoes -11.9544
25
root -9.74967 17.986 -16.3513 -111.452 89.0053 -115.816
lowerback 8.42304 -0.0376814 1.16304
upperback -1.60248 0.178371 1.479
thorax -6.41161 0.0784987 0.868096
lowerneck -23.1289 -3.96985 -5.62692
upperneck 36.7253 -3.70327 2.57695
head 17.6487 -1.59301 1.46672
rclavicle -2.73329e-016 1.15295e-014
rhumerus -36.696 2.83296 -79.4224
rradius 32.9733
rwrist 19.229
rhand -17.1974 -13.793
rfingers 7.12502
rthumb 9.04489 -43.5791
lclavicle -2.73329e-016 1.15295e-014
lhumerus -33.6175 2.0075 89.0843
lradius 28.8989
lwrist 20.4357
lhand -30.9186 9.40837
lfingers 7.12502
lthumb -4.2045 39.3466
rfemur 3.88979 -3.93227 14.705
rtibia -6.36111e-015
rfoot -8.6627 -14.9219
rtoes 5.08508
lfemur -8.32333 -12.1172 -11.2344
ltibia 20.3788
lfoot -19.5632 6.88658
ltoes -11.8412
26
root -9.76917 17.9981 -16.356 -98.6288 89.0971 -103.37
lowerback 8.55325 0.0518603 1.24065
upperback -1.51782 0.305765 1.45052
thorax -6.39674 0.137736 0.776725
lowerneck -22.9085 -3.86534 -5.60255
upperneck 36.3228 -3.64053 2.72254
head 17.3733 -1.54945 1.53578
rclavicle 0 3.57812e-015
rhumerus -36.4363 3.19147 -79.5373
rradius 33.5527
rwrist 19.1977
rhand -17.1271 -13.7733
rfingers 7.12502
rthumb 9.11268 -43.5564
lclavicle 0 3.57812e-015
lhumerus -33.3283 1.276 89.4096
lradius 29.2601
lwrist 20.5585
lhand -30.8852 9.35689
lfingers 7.12502
lthumb -4.17224 39.2958
rfemur 3.35063 -3.74557 14.6907
rtibia -1.59028e-015
rfoot -8.59165 -14.9006
rtoes 5.34533
lfemur -8.70534 -12.0885 -11.1951
ltibia 20.2811
lfoot -19.5596 7.09822
ltoes -11.282
27
root -9.79036 18.0107 -16.362 -84.3037 89.1279 -89.4344
lowerback 8.69912 0.144243 1.38978
upperback -1.40852 0.442566 1.38804
thorax -6.36346 0.198433 0.607806
lowerneck -22.7108 -3.74182 -5.55576
upperneck 35.8311 -3.59893 2.95908
head 17.0636 -1.49924 1.6338
rclavicle -8.94531e-016 -4.37326e-015
rhumerus -36.1989 3.65613 -79.7363
rradius 34.2885
rwrist 19.0821
rhand -16.8831 -13.9954
rfingers 7.12502
rthumb 9.34816 -43.7681
lclavicle -8.94531e-016 -4.37326e-015
lhumerus -32.9745 0.476763 89.7031
lradius 29.6053
lwrist 20.6375
lhand -30.7466 9.26536
lfingers 7.12502
lthumb -4.03845 39.2068
rfemur 2.79287 -3.56664 14.6818
rtibia -1.43125e-014
rfoot -8.50977 -14.8688
rtoes 5.61187
lfemur -9.11562 -12.1237 -11.1406
ltibia 20.2011
lfoot -19.5794 7.33103
ltoes -10.4378
